<svg width="96" height="85" viewBox="0 0 96 85" fill="none" xmlns="http://www.w3.org/2000/svg">
<path d="M19.1546 8.17091C20.6272 5.9463 22.2601 4.06228 24.4992 2.56996C27.6042 0.501308 31.3029 -0.539436 35.008 0.280782C37.995 0.942238 40.4248 2.95119 42.0607 5.45761C43.744 9.00385 45.2199 12.5343 46.3128 16.3098C46.536 17.0779 46.8191 18.6047 47.1332 20.2984C47.6902 23.3009 48.3448 26.8295 48.9336 27.5843C49.4682 32.7817 45.6147 40.4072 42.3836 44.3786C41.6098 45.3412 40.7602 46.2422 39.8443 47.0732C45.4873 56.3025 48.6824 67.0938 49.7035 77.8473C52.1966 69.4939 54.7658 61.1633 57.4142 52.8569C53.2058 46.3652 53.5689 35.8099 55.1486 28.5004C56.7203 21.2219 60.2384 13.3091 66.7684 9.2144C67.4945 8.76032 68.2483 8.35244 69.0103 7.9572C73.6216 13.7083 75.353 20.0993 74.555 27.4055C73.486 37.2206 67.9771 46.3979 60.2825 52.4943L59.9632 52.7458C59.3523 54.9196 58.6491 57.0856 57.9458 59.2527C56.9814 62.2227 56.0166 65.1948 55.2881 68.1914C55.3301 68.1745 55.3727 68.1582 55.4152 68.1419C55.4943 68.1118 55.5733 68.0814 55.6511 68.0465C56.5236 67.6565 58.0844 65.2347 59.3846 63.2172C60.0517 62.1818 60.6504 61.2529 61.0522 60.7597C67.8256 52.4354 77.0284 47.4636 87.9303 47.6988C89.9806 47.7425 92.4378 47.8198 94.3885 48.394C95.3299 48.6702 95.4892 48.8183 96 49.6353C95.6887 55.4055 88.0896 64.5249 83.7299 68.4381C74.7427 76.5049 63.5771 81.1461 52.2885 85C51.8289 84.8979 51.5733 84.8411 51.0555 84.7261L47.1046 83.8485L45.0722 83.397L43.2016 82.8307L43.329 82.498C43.096 81.5897 41.7535 81.3353 40.8121 81.1567L40.8001 81.1544C40.714 81.1382 40.6315 81.1225 40.5537 81.1071C39.4512 80.8874 38.3363 80.672 37.2141 80.4551L37.1961 80.4517C24.9079 78.078 11.7018 75.5269 3.58031 65.1545C2.19252 63.3823 -0.248301 59.8739 0.0357965 57.648C1.91672 56.0426 7.4664 55.483 9.87464 55.3481C22.0588 54.664 33.564 61.1474 41.1351 70.313C41.8886 71.2241 42.5742 72.3473 43.2636 73.4769C44.2345 75.0678 45.2133 76.6713 46.4007 77.7128L46.8714 76.8388C45.5511 66.514 43.1496 57.2672 37.457 48.4625C33.4645 49.6429 29.7615 49.9831 25.613 49.2238C22.9632 48.7383 18.6869 47.4055 17.0863 45.1236C16.6214 44.3913 13.9379 43.0666 11.315 41.7719C9.28106 40.7677 7.28359 39.7816 6.38565 39.1039C2.59182 36.2397 0.715654 32.4359 0.0327456 27.7932L0.0166369 27.4019C-0.154945 22.2292 1.0975 17.6103 4.7704 13.805C8.62427 9.81214 13.7288 8.26286 19.1546 8.17091Z" fill="#353C3A"/>
<path d="M19.1533 8.17091C20.6261 5.94627 22.2588 4.06229 24.4982 2.56991C27.6029 0.501267 31.3019 -0.539427 35.0068 0.280787C37.9938 0.942211 40.4235 2.95115 42.0594 5.45756C36.9419 6.93562 35.1967 8.89801 32.2293 13.2892C31.449 15.4279 30.7805 17.6657 30.5914 19.9456C34.1919 23.1115 36.5055 26.6741 36.825 31.5774C36.8633 32.1633 36.9068 32.2723 36.5861 32.7471L35.2777 32.361C34.1117 33.2107 33.8197 34.6585 33.6023 36.0156C33.2146 38.4392 33.1575 41.0527 33.2054 43.5054C30.2013 42.6282 27.5566 42.3238 24.43 42.4691C21.8571 43.1042 19.4294 43.8448 17.085 45.1235C16.2597 43.8233 8.44006 40.6555 6.38452 39.1038C2.59058 36.2397 0.714539 32.4359 0.031621 27.7932L0.0152842 27.402C-0.156243 22.2292 1.09629 17.6103 4.76937 13.805C8.62315 9.81214 13.7275 8.26284 19.1533 8.17091Z" fill="#EAE9E8"/>
<path d="M19.1533 8.17091C20.6261 5.94627 22.2588 4.06229 24.4982 2.56991C27.6029 0.501267 31.3019 -0.539427 35.0068 0.280787C37.9938 0.942211 40.4235 2.95115 42.0594 5.45756C36.9419 6.93562 35.1967 8.89801 32.2293 13.2892C31.449 15.4279 30.7805 17.6657 30.5914 19.9456L26.9973 18.499C25.5633 18.5372 22.7382 18.2499 21.51 18.8683L19.926 19.6368C19.3153 20.1908 18.602 21.0257 17.9 21.4288L16.5729 23.7152L15.6538 23.7717C11.3816 23.6953 7.34786 24.1601 3.43784 26.0007C2.33248 26.5213 1.17248 27.4477 0.031621 27.7932L0.0152842 27.402C-0.156243 22.2292 1.09629 17.6103 4.76937 13.805C8.62315 9.81214 13.7275 8.26284 19.1533 8.17091Z" fill="#DB8778"/>
<path d="M26.9984 18.499C27.6526 16.7503 28.2039 14.6001 29.555 13.2661C30.7744 12.7742 31.0197 12.9354 32.2304 13.2892C31.4501 15.4279 30.7816 17.6656 30.5925 19.9456L26.9984 18.499Z" fill="#353C3A"/>
<path d="M19.926 19.6368C18.6347 18.7509 17.1496 17.8467 16.1045 16.6659C15.4268 15.9006 15.0717 15.0677 15.1192 14.0473L15.7985 13.713C18.6583 14.3386 19.8809 16.6723 21.51 18.8683L19.926 19.6368Z" fill="#353C3A"/>
<path d="M15.6529 23.7716C15.1148 23.7052 14.5084 23.6574 13.9863 23.5038C13.1139 23.2471 12.9735 22.8866 12.642 22.1388C13.0141 21.6182 13.1031 21.4746 13.6939 21.2155C15.1219 20.5895 16.5001 20.9066 17.8991 21.4288L16.572 23.7151L15.6529 23.7716Z" fill="#353C3A"/>
<path d="M22.7792 10.4906C23.2619 10.6988 23.7354 10.9471 24.0405 11.3936C25.2643 13.1865 25.0593 16.7654 24.8371 18.8428L23.1362 18.339C22.9032 18.0843 22.7225 17.8817 22.5789 17.5637C21.5765 15.3463 21.9906 12.6974 22.7792 10.4906Z" fill="#353C3A"/>
<path d="M15.6555 23.7717L16.5746 23.7152C15.4544 27.942 14.8505 32.217 17.1956 36.1883C18.8694 39.023 21.5847 40.9313 24.4317 42.4691C21.8588 43.1042 19.4311 43.8448 17.0867 45.1235C16.2614 43.8233 8.44176 40.6555 6.38623 39.1038C2.59228 36.2397 0.716243 32.4359 0.0333252 27.7932C1.17418 27.4477 2.33419 26.5212 3.43954 26.0007C7.34956 24.1601 11.3833 23.6953 15.6555 23.7717Z" fill="#EBB19F"/>
<path d="M55.2879 68.1913C55.4076 68.1432 55.5312 68.1002 55.6509 68.0465C56.9713 67.4563 59.8673 62.2138 61.052 60.7597C67.8254 52.4354 77.028 47.4635 87.93 47.6987C89.9803 47.7425 92.4375 47.8197 94.3881 48.394C95.3296 48.6702 95.4891 48.8182 95.9997 49.6352C95.6886 55.4054 88.0895 64.5248 83.7295 68.4381C74.7423 76.5049 63.577 81.146 52.2881 84.9999C58.152 77.5918 65.0131 70.3221 72.3529 64.3665C74.9058 62.2946 85.6881 55.711 86.47 54.3567C86.1229 54.1311 86.075 53.9874 85.6442 54.0499C75.8951 55.4647 57.1149 75.4471 51.283 83.0021C52.0209 77.858 53.2894 73 55.2879 68.1913Z" fill="#97A898"/>
<path d="M43.2014 82.8306L43.3291 82.4979C43.0738 81.5026 41.4861 81.2925 40.5535 81.107C27.3762 78.4805 12.4478 76.4795 3.58021 65.1545C2.19244 63.3823 -0.248431 59.8738 0.035586 57.648C1.9168 56.0426 7.4663 55.483 9.87446 55.3481C22.0589 54.664 33.564 61.1473 41.1351 70.3129C42.9501 72.5073 44.3702 75.9319 46.4006 77.7128L46.8713 76.8388C47.0787 78.0682 47.1625 79.0356 46.983 80.284C45.5191 79.816 43.2054 76.8169 41.8292 75.7301C34.0634 69.5882 20.4418 61.2353 10.1637 61.5298L9.89801 61.8915C12.4582 63.8806 16.7842 64.6709 19.8378 65.7275C29.0496 68.9157 39.3209 74.9608 45.192 82.9114L44.8768 83.2648C44.3662 83.149 43.6482 83.0826 43.2014 82.8306Z" fill="#97A898"/>
<path d="M69.0083 7.95712C73.6196 13.7082 75.3508 20.0991 74.553 27.4055C73.484 37.2206 67.9751 46.3977 60.2804 52.4942L59.9613 52.7457C61.7404 43.988 63.0607 34.7563 65.6695 26.2275C66.2399 24.3721 67.5084 21.022 66.567 19.2559L65.9088 19.5185C61.8919 25.8613 59.8575 44.5408 57.4123 52.8568C53.2039 46.3651 53.5669 35.8098 55.1465 28.5003C56.7182 21.2218 60.2365 13.309 66.7665 9.2143C67.4925 8.76022 68.2464 8.35231 69.0083 7.95712Z" fill="#97A898"/>
<path d="M32.2293 13.2892C35.1967 8.89803 36.9419 6.93564 42.0594 5.45758C43.7428 9.00388 45.2187 12.5343 46.3117 16.3098C46.93 18.4397 48.011 26.4035 48.9325 27.5842C45.6615 28.2437 43.3918 29.9991 41.5728 32.7618C40.5604 34.3008 39.7677 36.0546 39.0353 37.7436C38.2252 36.248 36.914 34.403 36.5861 32.7471C36.9068 32.2723 36.8633 32.1633 36.825 31.5775C36.5055 26.6741 34.1919 23.1115 30.5914 19.9456C30.7805 17.6657 31.4491 15.4279 32.2293 13.2892Z" fill="#EBB19F"/>
</svg>
