<svg xmlns="http://www.w3.org/2000/svg" style="display:none" aria-hidden="true">
  <symbol id="icon-menu" viewBox="0 0 24 24">
    <g transform="translate(4 6)" fill="currentColor">
      <path d="M0 0H16V2H0V0ZM0 5H16V7H0V5ZM0 10H16V12H0V10Z"/>
    </g>
  </symbol>
  <symbol id="icon-close" viewBox="0 0 24 24">
    <g transform="translate(6.293 6.343)" fill="currentColor">
      <path d="M9.899 0L5.656 4.242L1.414 0L0 1.414L4.242 5.656L0 9.898L1.414 11.312L5.656 7.07L9.899 11.312L11.313 9.898L7.071 5.656L11.313 1.414L9.899 0Z"/>
    </g>
  </symbol>
  <symbol id="icon-phone" viewBox="0 0 24 24">
    <g transform="translate(2.995 1.999)" fill="currentColor">
      <path d="M14.7122 10.2932C14.6194 10.2003 14.5092 10.1265 14.3879 10.0762C14.2666 10.0259 14.1366 10 14.0052 10C13.8739 10 13.7438 10.0259 13.6225 10.0762C13.5012 10.1265 13.391 10.2003 13.2982 10.2932L11.7042 11.8872C10.9652 11.6672 9.58622 11.1672 8.71222 10.2932C7.83822 9.4192 7.33822 8.0402 7.11822 7.3012L8.71222 5.7072C8.80516 5.61441 8.8789 5.50421 8.92921 5.38289C8.97952 5.26158 9.00542 5.13153 9.00542 5.0002C9.00542 4.86887 8.97952 4.73882 8.92921 4.61751C8.8789 4.49619 8.80516 4.38599 8.71222 4.2932L4.71222 0.293201C4.61943 0.200255 4.50922 0.126518 4.38791 0.0762068C4.26659 0.0258961 4.13655 0 4.00522 0C3.87388 0 3.74384 0.0258961 3.62252 0.0762068C3.50121 0.126518 3.391 0.200255 3.29822 0.293201L0.586217 3.0052C0.206217 3.3852 -0.00778346 3.9072 0.000216545 4.4402C0.0232165 5.8642 0.400217 10.8102 4.29822 14.7082C8.19622 18.6062 13.1422 18.9822 14.5672 19.0062H14.5952C15.1232 19.0062 15.6222 18.7982 16.0002 18.4202L18.7122 15.7082C18.8052 15.6154 18.8789 15.5052 18.9292 15.3839C18.9795 15.2626 19.0054 15.1325 19.0054 15.0012C19.0054 14.8699 18.9795 14.7398 18.9292 14.6185C18.8789 14.4972 18.8052 14.387 18.7122 14.2942L14.7122 10.2932ZM14.5852 17.0052C13.3372 16.9842 9.06722 16.6492 5.71222 13.2932C2.34622 9.9272 2.02022 5.6422 2.00022 4.4192L4.00522 2.4142L6.59122 5.0002L5.29822 6.2932C5.18068 6.41065 5.09426 6.55554 5.04677 6.71477C4.99928 6.874 4.99222 7.04256 5.02622 7.2052C5.05022 7.3202 5.63722 10.0472 7.29722 11.7072C8.95722 13.3672 11.6842 13.9542 11.7992 13.9782C11.9618 14.0132 12.1305 14.0067 12.2899 13.9593C12.4492 13.9119 12.5941 13.8253 12.7112 13.7072L14.0052 12.4142L16.5912 15.0002L14.5852 17.0052Z"/>
    </g>
  </symbol>
  <symbol id="icon-map" viewBox="0 0 24 24">
    <g transform="translate(4 2)" fill="currentColor">
      <path d="M8.00006 12C10.2061 12 12.0001 10.206 12.0001 8C12.0001 5.794 10.2061 4 8.00006 4C5.79406 4 4.00006 5.794 4.00006 8C4.00006 10.206 5.79406 12 8.00006 12ZM8.00006 6C9.10306 6 10.0001 6.897 10.0001 8C10.0001 9.103 9.10306 10 8.00006 10C6.89706 10 6.00006 9.103 6.00006 8C6.00006 6.897 6.89706 6 8.00006 6Z"/>
      <path d="M7.42009 19.814C7.58934 19.9349 7.79211 19.9998 8.00009 19.9998C8.20806 19.9998 8.41084 19.9349 8.58009 19.814C8.88409 19.599 16.0291 14.44 16.0001 8C16.0001 3.589 12.4111 0 8.00009 0C3.58909 0 8.80377e-05 3.589 8.80377e-05 7.995C-0.028912 14.44 7.11609 19.599 7.42009 19.814ZM8.00009 2C11.3091 2 14.0001 4.691 14.0001 8.005C14.0211 12.443 9.61209 16.428 8.00009 17.735C6.38909 16.427 1.97909 12.441 2.00009 8C2.00009 4.691 4.69109 2 8.00009 2Z"/>
    </g>
  </symbol>
  <symbol id="icon-arrow-left" viewBox="0 0 24 24">
    <g transform="translate(4.586 5.292)" fill="currentColor">
      <path d="M8.121 12L3.828 7.707H13.414V5.707H3.828L8.121 1.414L6.707 0L0 6.707L6.707 13.414L8.121 12Z"/>
    </g>
  </symbol>
  <symbol id="icon-arrow-right" viewBox="0 0 24 24">
    <g transform="translate(6 5.292)" fill="currentColor">
      <path d="M5.293 12L6.707 13.414L13.414 6.707L6.707 0L5.293 1.414L9.586 5.707H0V7.707H9.586L5.293 12Z"/>
    </g>
  </symbol>
  <symbol id="icon-arrow-top" viewBox="0 0 24 24">
    <g transform="rotate(-90 12 12) translate(6 5.292)" fill="currentColor">
      <path d="M5.293 12L6.707 13.414L13.414 6.707L6.707 0L5.293 1.414L9.586 5.707H0V7.707H9.586L5.293 12Z"/>
    </g>
  </symbol>
  <symbol id="icon-facebook" viewBox="0 0 24 24">
    <g transform="translate(1.999 2.242)" fill="currentColor">
      <path d="M20 10.0611C20 4.50451 15.5229 0 10 0C4.47715 0 0 4.50451 0 10.0611C0 15.0828 3.65684 19.2452 8.4375 20V12.9694H5.89844V10.0611H8.4375V7.84452C8.4375 5.32296 9.9305 3.93012 12.2146 3.93012C13.3088 3.93012 14.4531 4.12663 14.4531 4.12663V6.60261H13.1922C11.95 6.60261 11.5625 7.37822 11.5625 8.1739V10.0611H14.3359L13.8926 12.9694H11.5625V20C16.3432 19.2452 20 15.083 20 10.0611Z"/>
    </g>
  </symbol>
  <symbol id="icon-twitter" viewBox="0 0 24 24">
    <g transform="translate(3 4.243)" fill="currentColor">
      <path d="M14.1761 0H16.9362L10.9061 6.7774L18 16H12.4456L8.0951 10.4066L3.11723 16H0.35544L6.80517 8.7508L0 0H5.69545L9.6279 5.11262L14.1761 0ZM13.2073 14.3754H14.7368L4.86441 1.53928H3.2232L13.2073 14.3754Z"/>
    </g>
  </symbol>
  <symbol id="icon-check" viewBox="0 0 24 24">
    <path d="M9 16.17 4.83 12l-1.42 1.41L9 19 21 7l-1.41-1.41z" fill="currentColor"/>
  </symbol>
  <symbol id="icon-instagram" viewBox="0 0 24 24">
    <g transform="translate(3 3)" fill="currentColor"><path d="M8.9988 1.62091C11.4032 1.62091 11.6878 1.63159 12.6332 1.67378C13.5123 1.71258 13.9864 1.85994 14.303 1.98311C14.7215 2.14509 15.0235 2.34194 15.3362 2.65465C15.6528 2.97129 15.8458 3.26994 16.0111 3.68838C16.1343 4.00503 16.2816 4.48253 16.3204 5.35822C16.3626 6.3076 16.3733 6.59218 16.3733 8.99318C16.3733 11.3942 16.3626 11.6821 16.3204 12.6281C16.2816 13.5072 16.1343 13.9813 16.0111 14.298C15.8491 14.7164 15.6528 15.0184 15.3396 15.3311C15.0229 15.6478 14.7243 15.8407 14.3064 16.0061C13.9898 16.1292 13.5117 16.2766 12.6366 16.3154C11.6872 16.3576 11.4026 16.3683 9.00161 16.3683C6.60062 16.3683 6.31266 16.3576 5.36666 16.3154C4.48759 16.2766 4.01346 16.1292 3.69682 16.0061C3.27838 15.8441 2.97635 15.6478 2.66308 15.3345C2.34644 15.0179 2.15353 14.7192 1.98817 14.3013C1.865 13.9847 1.71765 13.5066 1.67884 12.6315C1.63666 11.6821 1.62597 11.3975 1.62597 8.99655C1.62597 6.59556 1.63666 6.3076 1.67884 5.3616C1.71765 4.48253 1.865 4.0084 1.98817 3.69176C2.15015 3.27331 2.347 2.97129 2.65971 2.65802C2.97635 2.34137 3.275 2.14846 3.69344 1.98311C4.01009 1.85994 4.48759 1.71258 5.36328 1.67378C6.30872 1.63159 6.59387 1.62091 8.99824 1.62091H8.9988ZM8.9988 0.000562425C6.55563 0.000562425 6.25023 0.0112485 5.29017 0.0534304C4.33405 0.0956122 3.67657 0.250279 3.1074 0.471875C2.51348 0.703594 2.01067 1.00955 1.5118 1.51236C1.00899 2.01179 0.703031 2.51404 0.471312 3.10459C0.249717 3.6777 0.0950498 4.33123 0.0528679 5.28736C0.0106861 6.25079 0 6.55619 0 8.99936C0 11.4425 0.0106861 11.7479 0.0528679 12.708C0.0950498 13.6641 0.249717 14.3216 0.471312 14.8908C0.703594 15.4847 1.00899 15.9875 1.5118 16.4864C2.01067 16.9852 2.51348 17.2951 3.10402 17.5235C3.67713 17.7451 4.33067 17.8997 5.28679 17.9419C6.24629 17.9841 6.55225 17.9948 8.99543 17.9948C11.4386 17.9948 11.7446 17.9841 12.7041 17.9419C13.6602 17.8997 14.3177 17.7451 14.8868 17.5235C15.4774 17.2951 15.9802 16.9858 16.4791 16.4864C16.9779 15.9869 17.2878 15.4847 17.5162 14.8941C17.7378 14.321 17.8924 13.6675 17.9346 12.7114C17.9768 11.7519 17.9875 11.4459 17.9875 9.00274C17.9875 6.55956 17.9768 6.25417 17.9346 5.29411C17.8924 4.33798 17.7378 3.68051 17.5162 3.11133C17.2946 2.51348 16.9886 2.01123 16.4864 1.5118C15.9875 1.01293 15.4847 0.703031 14.8941 0.474687C14.321 0.253091 13.6675 0.0984244 12.7114 0.0562425C11.7485 0.0106861 11.4425 0 8.99936 0L8.9988 0.000562425Z"/></g>
    <g transform="translate(7.378 7.378)" fill="currentColor"><path d="M4.62257 0C2.07085 0 0 2.07029 0 4.62257C0 7.17486 2.07029 9.24514 4.62257 9.24514C7.17486 9.24514 9.24514 7.17486 9.24514 4.62257C9.24514 2.07085 7.17486 0 4.62257 0ZM4.62257 7.62086C2.96679 7.62086 1.62428 6.27835 1.62428 4.62257C1.62428 2.96679 2.96679 1.62428 4.62257 1.62428C6.27835 1.62428 7.62086 2.96679 7.62086 4.62257C7.62086 6.27835 6.27835 7.62086 4.62257 7.62086Z"/></g>
    <g transform="translate(15.725 6.115)" fill="currentColor"><path d="M2.15859 1.07929C2.15859 1.67546 1.67546 2.15859 1.07929 2.15859C0.483122 2.15859 0 1.67546 0 1.07929C0 0.483123 0.483122 0 1.07929 0C1.67546 0 2.15859 0.483123 2.15859 1.07929Z"/></g>
  </symbol>
</svg>
