<svg overflow="visible" style="display: block;" viewBox="0 0 74 35.6389" fill="none" xmlns="http://www.w3.org/2000/svg">
<g id="logo" clip-path="url(#clip0_10214_375)">
<path id="Vector" d="M31.5943 0.534096C31.1301 0.844253 30.7915 1.2358 30.4862 1.69814C29.3611 1.71725 28.3028 2.03923 27.5037 2.86906C26.7422 3.65992 26.4825 4.61984 26.518 5.69489L26.5214 5.7762C26.663 6.74108 27.052 7.53162 27.8386 8.12687C28.0248 8.26773 28.4389 8.47267 28.8607 8.68136C29.4045 8.95044 29.9609 9.22574 30.0573 9.37793C30.3892 9.85218 31.2758 10.1292 31.8253 10.2301C32.6854 10.3879 33.4532 10.3172 34.281 10.0719C35.4613 11.9017 35.9593 13.8235 36.233 15.9693L36.1354 16.1509C35.8892 15.9345 35.6863 15.6012 35.485 15.2706C35.342 15.0358 35.1999 14.8024 35.0436 14.613C33.4738 12.7081 31.0883 11.3607 28.562 11.5029C28.0627 11.5309 26.912 11.6472 26.522 11.9809C26.4631 12.4435 26.9692 13.1726 27.2569 13.5409C28.9409 15.6966 31.6791 16.2268 34.2269 16.7201C34.4609 16.7654 34.6933 16.8104 34.9231 16.8563C34.94 16.8597 34.958 16.8631 34.9767 16.8667C35.1719 16.9037 35.4502 16.9566 35.4985 17.1454L35.4721 17.2145C32.8707 16.7768 30.1545 17.0925 27.9616 18.6644C26.0872 20.0081 25.0111 22.1291 24.6478 24.3731C24.2165 27.0366 24.6666 30.0173 26.2699 32.2348C27.5662 34.0277 29.4807 35.1652 31.6602 35.5098C34.0689 35.8905 36.6863 35.4429 38.677 33.9853C40.5661 32.6021 41.6356 30.4877 41.9821 28.206C42.399 25.4599 42.016 22.5405 40.3346 20.2674C39.6084 19.2857 38.7515 18.6179 37.7077 18.0025C37.6851 17.9892 37.6622 17.9765 37.6397 17.964C37.5114 17.8928 37.3914 17.8262 37.3562 17.6654C39.6968 16.8644 42.0119 15.8999 43.8754 14.2234C44.7793 13.4101 46.3549 11.5148 46.4195 10.3156C46.3136 10.1458 46.2805 10.115 46.0853 10.0576C45.6809 9.93829 45.1714 9.92224 44.7463 9.91314C42.4859 9.86426 40.5777 10.8975 39.1733 12.6276C39.09 12.7301 38.9659 12.9231 38.8275 13.1383C38.558 13.5576 38.2343 14.0609 38.0535 14.142C38.0373 14.1492 38.0209 14.1555 38.0045 14.1618C37.9957 14.1652 37.9869 14.1686 37.9782 14.1721C38.1292 13.5493 38.3293 12.9316 38.5292 12.3144C38.675 11.864 38.8209 11.4138 38.9475 10.9621L39.0137 10.9098C40.6091 9.64277 41.7514 7.73549 41.973 5.69564C42.1385 4.17718 41.7795 2.84896 40.8234 1.65373C40.6654 1.73586 40.5091 1.82063 40.3585 1.91501C39.0046 2.766 38.2751 4.4105 37.9492 5.92317C37.6217 7.44229 37.5464 9.63598 38.419 10.9851C37.8699 12.7114 37.3372 14.4428 36.8202 16.1789C36.6085 13.944 35.946 11.7012 34.776 9.78312C34.9659 9.61043 35.1421 9.42317 35.3025 9.2231C35.9725 8.39775 36.7714 6.81296 36.6606 5.73277C36.5385 5.57587 36.4028 4.84268 36.2873 4.21858C36.2222 3.86657 36.1635 3.54926 36.1172 3.38963C35.8906 2.60497 35.5846 1.87125 35.2356 1.13423C34.8964 0.613331 34.3926 0.195813 33.7732 0.0583504C33.005 -0.112113 32.2381 0.104174 31.5943 0.534096ZM32.4018 17.7802C33.4869 17.6731 34.4884 17.7808 35.4324 18.3749C36.9559 19.3339 37.6937 21.1288 38.0766 22.8147C38.7334 25.7107 38.73 30.4166 37.0659 33.002C36.3885 34.0544 35.5151 34.567 34.3179 34.8267C33.2011 34.9468 32.137 34.8358 31.1797 34.2041C29.607 33.1662 28.9164 31.1943 28.5525 29.4279C27.943 26.4692 27.8598 22.2141 29.6135 19.593C30.3154 18.5439 31.1889 18.0297 32.4018 17.7802Z" fill="var(--fill-0, #353C3A)"/>
<path id="Vector_2" d="M30.4859 1.69814C30.7912 1.2358 31.1298 0.844255 31.5941 0.534096C32.2378 0.104174 33.0048 -0.112112 33.773 0.0583517C34.3923 0.195814 34.8961 0.613329 35.2353 1.13423C34.1742 1.44141 33.8124 1.84925 33.1971 2.76187C33.0353 3.20634 32.8967 3.67142 32.8575 4.14526C33.604 4.80321 34.0837 5.54362 34.15 6.56268C34.1579 6.68443 34.1669 6.70709 34.1004 6.80576L33.8291 6.72553C33.5874 6.90212 33.5268 7.20301 33.4818 7.48505C33.4014 7.98875 33.3895 8.5319 33.3995 9.04164C32.7766 8.85935 32.2282 8.79607 31.58 8.82626C31.0465 8.95826 30.5431 9.11219 30.057 9.37793C29.8859 9.10772 28.2646 8.44936 27.8384 8.12687C27.0517 7.53162 26.6627 6.74108 26.5211 5.7762L26.5177 5.69489C26.4822 4.61984 26.7419 3.65992 27.5035 2.86906C28.3025 2.03924 29.3609 1.71725 30.4859 1.69814Z" fill="var(--fill-0, #EAE9E8)"/>
<path id="Vector_3" d="M30.4859 1.69814C30.7912 1.2358 31.1298 0.844255 31.5941 0.534096C32.2378 0.104174 33.0048 -0.112112 33.773 0.0583517C34.3923 0.195814 34.8961 0.613329 35.2353 1.13423C34.1742 1.44141 33.8124 1.84925 33.1971 2.76187C33.0353 3.20634 32.8967 3.67142 32.8575 4.14526L32.1123 3.84461C31.8149 3.85255 31.2292 3.79283 30.9745 3.92136L30.6461 4.08107C30.5195 4.19621 30.3716 4.36973 30.226 4.45351L29.9508 4.92868L29.7603 4.94042C28.8745 4.92454 28.0381 5.02115 27.2274 5.40368C26.9982 5.51186 26.7577 5.70441 26.5211 5.7762L26.5177 5.69489C26.4822 4.61984 26.7419 3.65992 27.5035 2.86906C28.3025 2.03924 29.3609 1.71725 30.4859 1.69814Z" fill="var(--fill-0, #DB8778)"/>
<path id="Vector_4" d="M32.1125 3.84461C32.2481 3.48118 32.3625 3.03431 32.6426 2.75706C32.8954 2.65484 32.9463 2.68833 33.1973 2.76186C33.0355 3.20634 32.8969 3.67141 32.8577 4.14525L32.1125 3.84461Z" fill="var(--fill-0, #353C3A)"/>
<path id="Vector_5" d="M30.6461 4.08107C30.3784 3.89696 30.0704 3.70905 29.8537 3.46365C29.7132 3.3046 29.6396 3.13149 29.6494 2.91942L29.7903 2.84995C30.3832 2.97997 30.6367 3.46497 30.9745 3.92136L30.6461 4.08107Z" fill="var(--fill-0, #353C3A)"/>
<path id="Vector_6" d="M29.7601 4.94042C29.6485 4.92661 29.5228 4.91668 29.4145 4.88476C29.2336 4.83141 29.2045 4.75648 29.1358 4.60107C29.213 4.49288 29.2314 4.46302 29.3539 4.40918C29.65 4.27908 29.9358 4.345 30.2258 4.45351L29.9507 4.92868L29.7601 4.94042Z" fill="var(--fill-0, #353C3A)"/>
<path id="Vector_7" d="M31.2377 2.18024C31.3378 2.2235 31.4359 2.27511 31.4992 2.36791C31.753 2.74052 31.7104 3.48432 31.6644 3.91606L31.3117 3.81135C31.2634 3.75842 31.2259 3.71632 31.1962 3.65023C30.9883 3.18938 31.0742 2.63887 31.2377 2.18024Z" fill="var(--fill-0, #353C3A)"/>
<path id="Vector_8" d="M29.7606 4.94042L29.9512 4.92868C29.7189 5.80713 29.5937 6.69559 30.08 7.52095C30.427 8.11008 30.99 8.50667 31.5803 8.82626C31.0468 8.95827 30.5435 9.11219 30.0574 9.37793C29.8863 9.10772 28.2649 8.44936 27.8387 8.12687C27.0521 7.53162 26.6631 6.74108 26.5215 5.7762C26.758 5.70441 26.9986 5.51186 27.2277 5.40368C28.0385 5.02115 28.8748 4.92454 29.7606 4.94042Z" fill="var(--fill-0, #EBB19F)"/>
<path id="Vector_9" d="M37.9781 14.1721C38.0029 14.1621 38.0286 14.1531 38.0534 14.142C38.3271 14.0193 38.9276 12.9298 39.1733 12.6276C40.5777 10.8975 42.4858 9.86426 44.7462 9.91314C45.1713 9.92224 45.6808 9.93828 46.0853 10.0576C46.2805 10.115 46.3135 10.1458 46.4194 10.3156C46.3549 11.5148 44.7793 13.4101 43.8753 14.2234C42.0118 15.8999 39.6968 16.8644 37.3561 17.6654C38.572 16.1258 39.9946 14.6149 41.5164 13.3772C42.0457 12.9466 44.2814 11.5783 44.4435 11.2969C44.3715 11.25 44.3616 11.2201 44.2723 11.2331C42.2509 11.5271 38.3569 15.68 37.1477 17.2502C37.3007 16.1811 37.5637 15.1715 37.9781 14.1721Z" fill="var(--fill-0, #97A898)"/>
<path id="Vector_10" d="M35.4721 17.2145L35.4985 17.1454C35.4456 16.9385 35.1164 16.8949 34.923 16.8563C32.1908 16.3104 29.0955 15.8946 27.2569 13.5409C26.9692 13.1726 26.4631 12.4435 26.522 11.9809C26.912 11.6472 28.0627 11.5309 28.562 11.5029C31.0883 11.3607 33.4738 12.7081 35.0436 14.613C35.42 15.0691 35.7144 15.7808 36.1354 16.1509L36.233 15.9693C36.276 16.2248 36.2934 16.4258 36.2562 16.6853C35.9526 16.588 35.4729 15.9647 35.1876 15.7388C33.5774 14.4624 30.753 12.7264 28.6219 12.7876L28.5669 12.8628C29.0977 13.2762 29.9947 13.4404 30.6278 13.66C32.5378 14.3226 34.6675 15.579 35.8848 17.2313L35.8194 17.3048C35.7136 17.2807 35.5647 17.2669 35.4721 17.2145Z" fill="var(--fill-0, #97A898)"/>
<path id="Vector_11" d="M40.8229 1.65372C41.779 2.84895 42.138 4.17717 41.9726 5.69563C41.7509 7.73548 40.6087 9.64276 39.0132 10.9098L38.9471 10.9621C39.316 9.14195 39.5897 7.22335 40.1306 5.45081C40.2489 5.06522 40.5119 4.36898 40.3167 4.00191L40.1803 4.0565C39.3474 5.37472 38.9256 9.25684 38.4186 10.9851C37.546 9.63597 37.6213 7.44228 37.9488 5.92316C38.2747 4.4105 39.0042 2.76599 40.3581 1.915C40.5086 1.82063 40.6649 1.73585 40.8229 1.65372Z" fill="var(--fill-0, #97A898)"/>
<path id="Vector_12" d="M33.1971 2.76187C33.8124 1.84926 34.1742 1.44142 35.2353 1.13424C35.5843 1.87126 35.8903 2.60497 36.117 3.38963C36.2452 3.83229 36.4693 5.48738 36.6604 5.73278C35.9821 5.86983 35.5115 6.23466 35.1344 6.80883C34.9245 7.12866 34.7601 7.49316 34.6083 7.84418C34.4403 7.53336 34.1684 7.14992 34.1004 6.80576C34.1669 6.70709 34.1579 6.68443 34.15 6.56268C34.0837 5.54362 33.604 4.80321 32.8575 4.14526C32.8967 3.67142 33.0353 3.20635 33.1971 2.76187Z" fill="var(--fill-0, #EBB19F)"/>
<path id="Vector_13" d="M65.5524 17.0709C64.9048 17.0516 64.2597 17.0872 63.6146 17.1411C62.0472 17.4572 60.1647 17.9916 59.2268 19.4015C58.7587 20.1052 58.5502 20.9743 58.7165 21.8094C58.8389 22.4229 59.1673 22.9837 59.6983 23.3283C60.1895 23.647 60.8951 23.7926 61.4699 23.6637C61.9471 23.5567 62.3532 23.2472 62.6105 22.8348C62.9024 22.3666 62.9876 21.7725 62.8619 21.2373C62.7842 20.9071 62.5584 20.6472 62.3391 20.3945C61.9748 19.9749 61.6279 19.5754 62.0058 18.9073C62.3135 18.3642 63.043 18.0405 63.622 17.9069C64.5169 17.7003 65.5863 17.7635 66.377 18.2652C67.1504 18.7561 67.582 19.5625 67.7731 20.44C68.0089 21.5286 68.0643 23.1165 67.4299 24.067C66.8544 24.9295 65.3903 25.2682 63.7454 25.6487C61.3881 26.194 58.6595 26.8252 57.6437 29.2074C57.253 30.1229 57.37 31.0629 57.4581 31.7704C57.507 32.1638 57.547 32.4853 57.4858 32.6909C57.4965 32.705 57.5073 32.719 57.518 32.7332C57.6452 32.9045 57.7481 33.0893 57.8511 33.2743C57.9262 33.4093 58.0015 33.5443 58.0863 33.6744C58.7926 34.7602 59.7454 35.2321 61.005 35.4262C62.9057 35.719 65.0131 35.3018 66.5722 34.1468C66.9444 33.8711 67.6325 33.2513 67.7061 32.773C67.7125 32.7814 67.7188 32.7897 67.7249 32.7981L67.7326 32.8093C67.9605 33.1508 68.0418 33.4926 68.1182 33.8139C68.2789 34.4898 68.4182 35.0758 69.8549 35.3813C70.9326 35.6104 72.6017 35.4943 73.5578 34.8586C73.7539 34.7287 73.9557 34.5264 73.9937 34.2859C73.9987 34.2543 74 34.2308 73.9999 34.2057C73.9999 34.1858 73.9991 34.1649 73.9987 34.138C73.9825 34.1228 73.9689 34.1094 73.9569 34.0976C73.8858 34.028 73.8726 34.015 73.7431 34.0183C73.5535 34.0232 73.3593 34.0579 73.1651 34.0926C72.6715 34.1808 72.1789 34.2688 71.7664 33.8659C71.1544 33.2683 71.1662 31.8849 71.1736 30.9975C71.1742 30.9289 71.1747 30.8633 71.175 30.8012C71.1899 28.8823 71.194 26.9633 71.1882 25.0443C71.1808 20.7059 71.0418 17.2341 65.5524 17.0709ZM67.515 25.081L67.7516 25.0737L67.8228 25.1728C67.8909 25.7247 67.8714 26.2796 67.8519 26.8345C67.8429 27.0885 67.834 27.3426 67.8335 27.5963C67.8327 27.931 67.8441 28.2717 67.8555 28.6147C67.8828 29.4348 67.9106 30.268 67.7748 31.0592C67.6987 31.5063 67.5349 31.9341 67.2942 32.3186C66.7649 33.1623 65.8906 33.687 64.9288 33.8923C63.7898 34.1354 62.8958 33.8837 61.938 33.2695C61.8797 33.166 61.8234 33.0672 61.7692 32.9721C61.2091 31.9895 60.8746 31.4029 60.9877 30.0913C61.2007 27.6143 63.6623 26.6939 65.6831 25.9384L65.8385 25.8802L65.9469 25.8395C66.0228 25.811 66.1068 25.781 66.1955 25.7492L66.1968 25.7488C66.621 25.5972 67.1552 25.4063 67.4456 25.1461C67.4553 25.1376 67.4646 25.129 67.4739 25.1202C67.4876 25.1072 67.5012 25.094 67.515 25.081Z" fill="var(--fill-0, #353C3A)"/>
<path id="Vector_14" d="M65.869 25.8687C65.8441 25.8781 65.8192 25.8874 65.7941 25.8968L65.8384 25.8802L65.869 25.8687Z" fill="var(--fill-0, #EAE9E8)"/>
<path id="Vector_15" d="M8.93548 7.28877C9.33628 7.24486 9.77142 7.25966 10.1734 7.29928C11.7225 7.43947 13.1511 8.19394 14.1404 9.39422C14.8009 10.2097 15.1856 11.1985 15.0651 12.2558C14.9947 12.8745 14.7635 13.4726 14.2615 13.8667C13.7249 14.2879 12.9562 14.4968 12.2799 14.4133C11.7104 14.343 11.2133 14.0418 10.866 13.587C10.5568 13.1821 10.4222 12.5793 10.4978 12.0778C10.6638 10.9763 11.8175 10.875 12.5498 10.32C12.7465 10.1709 12.8291 10.0197 12.8646 9.77815C12.8198 9.49595 12.7049 9.31184 12.515 9.1073C11.8105 8.34828 10.738 7.99817 9.72254 7.97278C8.84781 7.95078 7.98184 8.18401 7.34688 8.81145C5.83058 10.3094 6.24652 15.0368 6.25099 17.0876C7.26616 17.0971 13.0785 16.9175 13.6023 17.3031C13.6537 17.4738 13.6312 17.5727 13.5873 17.7434C13.1895 18.0154 7.26302 17.8713 6.2452 17.886L6.25355 23.7516C6.77661 23.7527 7.30206 23.7594 7.82461 23.7375C11.5043 23.5838 10.4027 20.9276 11.2871 20.0479C11.3797 19.9558 11.4279 19.981 11.5558 19.981C11.8119 20.3207 11.6963 26.6712 11.6961 27.6243C11.699 27.848 11.6829 28.067 11.6645 28.2896L11.5065 28.4186C11.3018 28.421 11.2515 28.4528 11.0915 28.3161C10.9664 27.2858 10.671 25.9788 9.90202 25.2398C8.94855 24.3235 7.46937 24.5156 6.25347 24.5311C6.24644 26.2815 5.85944 32.6593 6.98123 33.8754C7.59509 34.5409 8.72018 34.453 9.15259 34.9947L9.1334 35.1132C8.89305 35.2464 8.59786 35.2538 8.32856 35.265C7.55531 35.297 0.60907 35.28 0.22745 35.1641C0.151027 35.1409 0.180472 35.1365 0.101402 35.1466C0.0864321 35.1485 0.0719564 35.1531 0.0573168 35.1563L0.0186075 35.065C0.123152 34.6734 1.71348 34.3638 2.1683 33.8891C3.1652 32.8484 2.80425 26.3387 2.79432 24.5443C2.09394 24.5331 0.692607 24.7778 0.16666 24.3459C0.0688979 24.1549 0.0417658 24.1194 0.0638492 23.9093C0.452417 23.5619 2.23472 23.728 2.78755 23.7262C2.79648 21.7701 2.79515 19.814 2.78357 17.8578C1.93274 17.8737 0.792271 18.0236 0.0204299 17.6163L0 17.3726C0.530579 16.9297 2.09849 17.0924 2.7887 17.0979C2.75785 14.5575 2.79457 11.5322 4.47952 9.45145C5.59477 8.07418 7.22712 7.46701 8.93548 7.28877Z" fill="var(--fill-0, #353C3A)"/>
<path id="Vector_16" d="M21.2538 6.0019L21.3492 6.02068C21.4791 6.1727 21.4793 6.25425 21.4893 6.44795C21.598 8.55282 21.4811 10.7256 21.4803 12.8381L21.4768 26.2022C21.4765 27.8065 21.2462 32.1222 21.7563 33.3814C22.3225 34.7793 23.6451 34.338 24.0714 34.9947L24.0048 35.1696C23.6186 35.3199 16.9813 35.2388 15.9104 35.2717C15.8257 35.2716 15.8424 35.2808 15.7792 35.2558C15.6167 35.1913 15.621 35.1272 15.5531 34.9773C15.7137 34.4259 16.8936 34.6484 17.3748 34.113C17.7919 33.649 17.9544 33.0321 18.0307 32.4286C18.1888 31.1779 18.1404 29.8928 18.1399 28.6341L18.1351 23.334L18.1313 15.7446C18.1333 14.0598 18.1758 12.3648 18.0948 10.6818C18.0057 8.83089 18.0686 8.48566 16.2389 7.91943C16.054 7.8622 15.7913 7.8005 15.6543 7.656C15.568 7.56502 15.5937 7.53409 15.5917 7.41673L15.6686 7.42649C15.8133 7.2585 16.4777 7.22236 16.71 7.19283C18.2992 6.99053 19.8139 6.73429 21.2538 6.0019Z" fill="var(--fill-0, #353C3A)"/>
<path id="Vector_17" d="M48.2398 16.97L48.4887 17.0014C48.5086 17.0324 48.5408 17.0773 48.5549 17.1141C48.7402 17.5973 48.6384 20.8331 48.4515 21.2735C48.7187 21.0412 48.8336 20.713 48.9924 20.4045C49.554 19.3135 50.248 18.3563 51.3687 17.7837C52.5332 17.1886 54.0443 16.8787 55.3073 17.3037C56.0086 17.5397 56.5752 18.0238 56.8969 18.6925C57.2319 19.3902 57.2981 20.2114 57.0285 20.942C56.8085 21.5364 56.3668 22.0667 55.7845 22.3325C55.2328 22.5843 54.6208 22.5627 54.0625 22.3398C53.4984 22.1143 53.0204 21.7114 52.7904 21.1397C52.3471 20.04 52.9435 19.6424 53.2867 18.7383C53.3537 18.5634 53.3413 18.5093 53.2644 18.3453C53.0286 18.2318 52.7813 18.2803 52.5373 18.3389C49.4308 19.0838 48.7021 22.7553 48.6393 25.4951C48.6236 26.17 48.6484 28.5356 48.6484 28.5356C48.6484 28.5356 48.6227 30.8094 48.6484 31.4626C48.7104 33.0496 48.8196 34.1257 50.5168 34.6349C50.7649 34.7093 51.0808 34.7556 51.2703 34.9418C51.3207 34.9911 51.2959 35.0809 51.2951 35.1485C51.276 35.163 51.257 35.1784 51.238 35.192C51.133 35.2643 43.2284 35.2918 42.7901 35.1819L42.7371 34.9998C42.9199 34.3099 44.2482 34.6553 44.7602 34.0037C45.015 33.6793 45.1134 33.2565 45.1713 32.8566C45.4831 30.7109 45.3326 28.3923 45.3276 26.2201C45.3235 24.4205 45.4384 22.5035 45.1936 20.7255C44.8537 18.2515 43.953 19.413 42.9299 18.6337C42.8405 18.4385 42.8546 18.4176 42.9034 18.2053C44.6461 17.8754 46.5806 17.8606 48.1827 17.0012L48.2398 16.97Z" fill="var(--fill-0, #353C3A)"/>
</g>
<defs>
<clipPath id="clip0_10214_375">
<rect width="74" height="35.6389" fill="white"/>
</clipPath>
</defs>
</svg>
