<svg overflow="visible" style="display: block;" viewBox="0 0 98.6667 47.5185" fill="none" xmlns="http://www.w3.org/2000/svg">
<g id="logo" clip-path="url(#clip0_10214_354)">
<path id="Vector" d="M42.1258 0.712129C41.5067 1.12567 41.0553 1.64773 40.6482 2.26419C39.1482 2.28966 37.737 2.71898 36.6716 3.82541C35.6562 4.87989 35.31 6.15979 35.3574 7.59319L35.3618 7.7016C35.5506 8.98811 36.0693 10.0422 37.1181 10.8358C37.3664 11.0236 37.9186 11.2969 38.4809 11.5751C39.206 11.9339 39.9479 12.301 40.0764 12.5039C40.5189 13.1362 41.7011 13.5056 42.4337 13.6401C43.5806 13.8505 44.6043 13.7562 45.708 13.4291C47.2818 15.869 47.9457 18.4313 48.3107 21.2924L48.1806 21.5345C47.8523 21.2459 47.5817 20.8016 47.3133 20.3607C47.1227 20.0477 46.9332 19.7365 46.7249 19.484C44.6318 16.9442 41.4511 15.1476 38.0827 15.3372C37.4169 15.3746 35.8827 15.5296 35.3627 15.9745C35.2841 16.5913 35.9589 17.5635 36.3426 18.0546C38.5878 20.9288 42.2388 21.6357 45.6359 22.2935C45.9479 22.3539 46.2577 22.4139 46.5641 22.4751C46.5867 22.4796 46.6106 22.4841 46.6356 22.4889C46.8958 22.5383 47.267 22.6088 47.3314 22.8605L47.2961 22.9527C43.8276 22.369 40.2059 22.7899 37.2822 24.8859C34.783 26.6775 33.3482 29.5055 32.8637 32.4974C32.2887 36.0488 32.8889 40.0231 35.0266 42.9798C36.7549 45.3703 39.3076 46.887 42.2136 47.3464C45.4252 47.854 48.915 47.2572 51.5694 45.3137C54.0882 43.4694 55.5141 40.6503 55.9761 37.608C56.532 33.9465 56.0214 30.054 53.7794 27.0232C52.8112 25.7143 51.6687 24.8238 50.2769 24.0033C50.2468 23.9856 50.2163 23.9687 50.1862 23.952C50.0152 23.8571 49.8552 23.7682 49.8083 23.5539C52.9291 22.4859 56.0159 21.1998 58.5005 18.9645C59.7058 17.8801 61.8066 15.3531 61.8927 13.7541C61.7514 13.5277 61.7074 13.4867 61.4471 13.4102C60.9079 13.251 60.2286 13.2297 59.6617 13.2175C56.6478 13.1523 54.1036 14.5301 52.2311 16.8368C52.12 16.9734 51.9545 17.2308 51.7701 17.5177C51.4106 18.0768 50.9791 18.7479 50.7379 18.856C50.7164 18.8656 50.6946 18.874 50.6727 18.8824C50.6609 18.8869 50.6492 18.8914 50.6376 18.8961C50.839 18.0657 51.1057 17.2422 51.3723 16.4191C51.5667 15.8186 51.7611 15.2184 51.93 14.6161L52.0183 14.5464C54.1455 12.857 55.6685 10.314 55.964 7.59418C56.1846 5.56958 55.706 3.79861 54.4312 2.20497C54.2205 2.31448 54.0121 2.42751 53.8114 2.55334C52.0061 3.688 51.0335 5.88067 50.599 7.89756C50.1623 9.92305 50.0619 12.848 51.2253 14.6468C50.4931 16.9486 49.7829 19.2571 49.0937 21.5718C48.8114 18.592 47.928 15.6016 46.368 13.0442C46.6212 12.8139 46.8561 12.5642 47.07 12.2975C47.9633 11.197 49.0286 9.08394 48.8808 7.6437C48.718 7.4345 48.5371 6.45691 48.3831 5.62477C48.2962 5.15543 48.218 4.73235 48.1563 4.51951C47.8542 3.47329 47.4461 2.495 46.9807 1.51231C46.5285 0.817775 45.8567 0.261084 45.031 0.0778005C44.0067 -0.149485 42.9841 0.138898 42.1258 0.712129ZM43.2024 23.7069C44.6493 23.5641 45.9846 23.7078 47.2432 24.4998C49.2746 25.7785 50.2583 28.1718 50.7688 30.4196C51.6445 34.2809 51.64 40.5555 49.4213 44.0026C48.518 45.4058 47.3535 46.0893 45.7572 46.4356C44.2681 46.5957 42.8494 46.4477 41.5729 45.6054C39.4759 44.2216 38.5552 41.5924 38.07 39.2371C37.2573 35.2923 37.1464 29.6189 39.4847 26.124C40.4205 24.7252 41.5852 24.0396 43.2024 23.7069Z" fill="var(--fill-0, #353C3A)"/>
<path id="Vector_2" d="M40.6478 2.26419C41.055 1.64773 41.5064 1.12567 42.1255 0.712128C42.9838 0.138898 44.0064 -0.149482 45.0306 0.0778022C45.8564 0.261086 46.5281 0.817772 46.9804 1.51231C45.5656 1.92188 45.0831 2.46567 44.2628 3.68249C44.0471 4.27513 43.8622 4.89522 43.81 5.52701C44.8054 6.40428 45.445 7.39149 45.5333 8.75024C45.5439 8.91257 45.5559 8.94278 45.4672 9.07435L45.1055 8.96738C44.7832 9.20282 44.7025 9.60402 44.6424 9.98007C44.5352 10.6517 44.5194 11.3759 44.5326 12.0555C43.7021 11.8125 42.971 11.7281 42.1066 11.7683C41.3953 11.9444 40.7242 12.1496 40.076 12.5039C39.8479 12.1436 37.6861 11.2658 37.1178 10.8358C36.069 10.0422 35.5503 8.98811 35.3615 7.7016L35.357 7.59319C35.3096 6.15979 35.6558 4.87989 36.6713 3.82541C37.7367 2.71898 39.1478 2.28966 40.6478 2.26419Z" fill="var(--fill-0, #EAE9E8)"/>
<path id="Vector_3" d="M40.6478 2.26419C41.055 1.64773 41.5064 1.12567 42.1255 0.712128C42.9838 0.138898 44.0064 -0.149482 45.0306 0.0778022C45.8564 0.261086 46.5281 0.817772 46.9804 1.51231C45.5656 1.92188 45.0831 2.46567 44.2628 3.68249C44.0471 4.27513 43.8622 4.89522 43.81 5.52701L42.8164 5.12614C42.4199 5.13673 41.6389 5.05711 41.2994 5.22848L40.8614 5.44143C40.6926 5.59494 40.4954 5.8263 40.3013 5.93802L39.9344 6.57157L39.6804 6.58723C38.4993 6.56606 37.3841 6.69486 36.3032 7.2049C35.9976 7.34914 35.6769 7.60587 35.3615 7.7016L35.357 7.59319C35.3096 6.15979 35.6558 4.87989 36.6713 3.82541C37.7367 2.71898 39.1478 2.28966 40.6478 2.26419Z" fill="var(--fill-0, #DB8778)"/>
<path id="Vector_4" d="M42.8167 5.12614C42.9975 4.64158 43.1499 4.04574 43.5235 3.67609C43.8606 3.53978 43.9284 3.58445 44.2631 3.68248C44.0474 4.27512 43.8626 4.89522 43.8103 5.52701L42.8167 5.12614Z" fill="var(--fill-0, #353C3A)"/>
<path id="Vector_5" d="M40.8614 5.44143C40.5045 5.19595 40.0939 4.94539 39.805 4.6182C39.6176 4.40613 39.5195 4.17532 39.5326 3.89256L39.7204 3.79993C40.511 3.97329 40.849 4.61996 41.2994 5.22848L40.8614 5.44143Z" fill="var(--fill-0, #353C3A)"/>
<path id="Vector_6" d="M39.6801 6.58723C39.5314 6.56881 39.3637 6.55558 39.2194 6.51301C38.9782 6.44188 38.9394 6.34197 38.8477 6.13476C38.9506 5.99051 38.9752 5.9507 39.1385 5.87891C39.5333 5.70544 39.9144 5.79333 40.3011 5.93802L39.9342 6.57157L39.6801 6.58723Z" fill="var(--fill-0, #353C3A)"/>
<path id="Vector_7" d="M41.6502 2.90699C41.7837 2.96467 41.9146 3.03348 41.9989 3.15722C42.3373 3.65402 42.2806 4.64576 42.2192 5.22141L41.7489 5.0818C41.6845 5.01122 41.6346 4.95509 41.5949 4.86698C41.3177 4.25251 41.4322 3.51849 41.6502 2.90699Z" fill="var(--fill-0, #353C3A)"/>
<path id="Vector_8" d="M39.6808 6.58723L39.9349 6.57157C39.6253 7.74284 39.4583 8.92746 40.1066 10.0279C40.5693 10.8134 41.32 11.3422 42.1071 11.7684C41.3958 11.9444 40.7246 12.1496 40.0765 12.5039C39.8483 12.1436 37.6865 11.2658 37.1183 10.8358C36.0694 10.0422 35.5508 8.98811 35.362 7.7016C35.6774 7.60588 35.9981 7.34915 36.3037 7.2049C37.3846 6.69486 38.4997 6.56606 39.6808 6.58723Z" fill="var(--fill-0, #EBB19F)"/>
<path id="Vector_9" d="M50.6375 18.8961C50.6706 18.8828 50.7048 18.8709 50.7378 18.856C51.1029 18.6924 51.9035 17.2397 52.231 16.8368C54.1036 14.5301 56.6477 13.1523 59.6616 13.2175C60.2284 13.2296 60.9078 13.251 61.447 13.4102C61.7073 13.4867 61.7514 13.5277 61.8925 13.7541C61.8065 15.3531 59.7057 17.8801 58.5004 18.9645C56.0158 21.1998 52.9291 22.4859 49.8082 23.5538C51.4293 21.501 53.3261 19.4865 55.3552 17.8362C56.061 17.2621 59.0418 15.4378 59.258 15.0625C59.162 15 59.1488 14.9601 59.0297 14.9775C56.3345 15.3695 51.1426 20.9067 49.5303 23.0002C49.7343 21.5748 50.085 20.2286 50.6375 18.8961Z" fill="var(--fill-0, #97A898)"/>
<path id="Vector_10" d="M47.2961 22.9527L47.3314 22.8605C47.2608 22.5847 46.8219 22.5265 46.5641 22.4751C42.9211 21.7473 38.794 21.1928 36.3425 18.0546C35.9589 17.5635 35.2841 16.5913 35.3626 15.9745C35.8827 15.5296 37.4169 15.3746 38.0826 15.3372C41.4511 15.1476 44.6318 16.9442 46.7249 19.484C47.2266 20.0921 47.6192 21.041 48.1805 21.5345L48.3107 21.2924C48.368 21.633 48.3912 21.9011 48.3415 22.247C47.9368 22.1174 47.2972 21.2863 46.9167 20.9851C44.7698 19.2832 41.004 16.9685 38.1626 17.0502L38.0891 17.1504C38.7969 17.7016 39.9929 17.9206 40.8371 18.2134C43.3837 19.0968 46.2233 20.772 47.8464 22.9751L47.7593 23.073C47.6181 23.0409 47.4196 23.0225 47.2961 22.9527Z" fill="var(--fill-0, #97A898)"/>
<path id="Vector_11" d="M54.4306 2.20496C55.7054 3.7986 56.184 5.56957 55.9634 7.59417C55.6679 10.314 54.1449 12.857 52.0177 14.5464L51.9295 14.6161C52.4213 12.1893 52.7863 9.63113 53.5075 7.26775C53.6652 6.75363 54.0159 5.8253 53.7557 5.33588L53.5737 5.40867C52.4632 7.16629 51.9008 12.3424 51.2248 14.6468C50.0613 12.848 50.1617 9.92304 50.5984 7.89755C51.0329 5.88066 52.0055 3.68799 53.8108 2.55333C54.0115 2.4275 54.2199 2.31447 54.4306 2.20496Z" fill="var(--fill-0, #97A898)"/>
<path id="Vector_12" d="M44.2628 3.68249C45.0831 2.46568 45.5656 1.92189 46.9804 1.51232C47.4458 2.49501 47.8538 3.47329 48.156 4.51951C48.3269 5.10972 48.6257 7.31651 48.8805 7.64371C47.9762 7.82644 47.3487 8.31288 46.8458 9.07843C46.566 9.50488 46.3468 9.99088 46.1444 10.4589C45.9204 10.0445 45.5579 9.53322 45.4672 9.07435C45.5559 8.94279 45.5439 8.91257 45.5333 8.75024C45.445 7.3915 44.8054 6.40428 43.81 5.52701C43.8622 4.89523 44.0471 4.27513 44.2628 3.68249Z" fill="var(--fill-0, #EBB19F)"/>
<path id="Vector_13" d="M87.4032 22.7612C86.5398 22.7355 85.6795 22.783 84.8194 22.8548C82.7296 23.2763 80.2197 23.9888 78.969 25.8687C78.3449 26.807 78.067 27.9658 78.2886 29.0792C78.4519 29.8972 78.8897 30.6449 79.5977 31.1044C80.2527 31.5293 81.1934 31.7234 81.9598 31.5516C82.5961 31.409 83.1376 30.9962 83.4806 30.4464C83.8699 29.8221 83.9835 29.0301 83.8159 28.3165C83.7122 27.8761 83.4113 27.5296 83.1188 27.1927C82.633 26.6332 82.1706 26.1005 82.6745 25.2098C83.0847 24.4856 84.0574 24.0541 84.8293 23.8758C86.0225 23.6004 87.4484 23.6846 88.5027 24.3536C89.5338 25.0081 90.1094 26.0833 90.3642 27.2534C90.6785 28.7047 90.7524 30.822 89.9066 32.0893C89.1392 33.2393 87.187 33.6909 84.9939 34.1982C81.8508 34.9253 78.2127 35.7669 76.8583 38.9431C76.3374 40.1639 76.4933 41.4172 76.6107 42.3605C76.676 42.8851 76.7293 43.3138 76.6477 43.5879C76.662 43.6067 76.6764 43.6254 76.6907 43.6443C76.8603 43.8727 76.9975 44.1191 77.1348 44.3657C77.235 44.5457 77.3353 44.7258 77.4484 44.8992C78.3901 46.3469 79.6606 46.9762 81.34 47.2349C83.8743 47.6254 86.6842 47.069 88.763 45.5291C89.2592 45.1614 90.1767 44.3351 90.2748 43.6974C90.2833 43.7086 90.2917 43.7196 90.2998 43.7308L90.3101 43.7457C90.614 44.2011 90.7224 44.6567 90.8243 45.0853C91.0385 45.9864 91.2243 46.7677 93.1399 47.175C94.5768 47.4806 96.8022 47.3258 98.0771 46.4782C98.3385 46.3049 98.6076 46.0352 98.6583 45.7146C98.665 45.6724 98.6667 45.6411 98.6666 45.6076C98.6665 45.5811 98.6654 45.5532 98.6649 45.5173C98.6434 45.497 98.6251 45.4792 98.6092 45.4635C98.5144 45.3706 98.4968 45.3533 98.3241 45.3577C98.0713 45.3642 97.8123 45.4105 97.5535 45.4568C96.8954 45.5744 96.2385 45.6918 95.6885 45.1546C94.8726 44.3578 94.8882 42.5132 94.8981 41.33C94.8989 41.2385 94.8996 41.1511 94.9 41.0683C94.9198 38.5097 94.9253 35.9511 94.9176 33.3924C94.9077 27.6078 94.7224 22.9787 87.4032 22.7612ZM90.02 33.4413L90.3354 33.4316L90.4304 33.5637C90.5211 34.2996 90.4952 35.0395 90.4692 35.7793C90.4573 36.118 90.4453 36.4568 90.4446 36.795C90.4436 37.2413 90.4588 37.6956 90.474 38.1529C90.5105 39.2464 90.5475 40.3574 90.3664 41.4123C90.2649 42.0083 90.0465 42.5788 89.7257 43.0915C89.0199 44.2165 87.8542 44.9161 86.5717 45.1898C85.0531 45.5139 83.861 45.1783 82.584 44.3594C82.5063 44.2214 82.4313 44.0896 82.359 43.9628C81.6121 42.6527 81.1661 41.8705 81.3169 40.1217C81.601 36.819 84.8831 35.5918 87.5774 34.5845L87.7847 34.507L87.9292 34.4527C88.0304 34.4146 88.1424 34.3746 88.2607 34.3323L88.2625 34.3317C88.8279 34.1296 89.5403 33.8751 89.9275 33.5281C89.9404 33.5168 89.9528 33.5053 89.9651 33.4936C89.9835 33.4762 90.0015 33.4586 90.02 33.4413Z" fill="var(--fill-0, #353C3A)"/>
<path id="Vector_14" d="M87.8253 34.4917C87.7922 34.5041 87.7589 34.5166 87.7255 34.529L87.7845 34.507L87.8253 34.4917Z" fill="var(--fill-0, #EAE9E8)"/>
<path id="Vector_15" d="M11.914 9.71836C12.4484 9.65981 13.0286 9.67954 13.5645 9.73237C15.63 9.91929 17.5348 10.9253 18.8538 12.5256C19.7345 13.613 20.2474 14.9314 20.0868 16.341C19.9929 17.166 19.6847 17.9635 19.0153 18.4889C18.2999 19.0506 17.275 19.3291 16.3732 19.2178C15.6138 19.124 14.951 18.7224 14.488 18.116C14.0758 17.5762 13.8962 16.7725 13.997 16.1037C14.2184 14.635 15.7566 14.4999 16.733 13.76C16.9954 13.5612 17.1055 13.3597 17.1528 13.0375C17.0931 12.6613 16.9398 12.4158 16.6867 12.1431C15.7474 11.131 14.3174 10.6642 12.9634 10.6304C11.7971 10.601 10.6425 10.912 9.79585 11.7486C7.7741 13.7459 8.3287 20.0491 8.33465 22.7834C9.68821 22.7961 17.4379 22.5567 18.1363 23.0708C18.2049 23.2984 18.1749 23.4303 18.1164 23.6578C17.5859 24.0205 9.68402 23.8284 8.32693 23.8481L8.33807 31.6688C9.03547 31.6702 9.73607 31.6792 10.4328 31.6501C15.3391 31.4451 13.8702 27.9035 15.0494 26.7305C15.1729 26.6077 15.2372 26.6413 15.4077 26.6413C15.7491 27.0942 15.5951 35.5615 15.5949 36.8324C15.5986 37.1307 15.5772 37.4226 15.5527 37.7195L15.342 37.8914C15.069 37.8947 15.002 37.9371 14.7886 37.7548C14.6219 36.381 14.2281 34.6384 13.2027 33.6531C11.9314 32.4313 9.95917 32.6875 8.33796 32.7082C8.32858 35.042 7.81259 43.5457 9.3083 45.1672C10.1268 46.0546 11.6269 45.9373 12.2034 46.6597L12.1779 46.8176C11.8574 46.9951 11.4638 47.0051 11.1047 47.02C10.0738 47.0626 0.812093 47.04 0.303267 46.8854C0.201369 46.8545 0.24063 46.8487 0.135203 46.8621C0.115243 46.8647 0.0959418 46.8707 0.0764225 46.875L0.02481 46.7533C0.164202 46.2312 2.28465 45.8185 2.89107 45.1855C4.22026 43.7979 3.739 35.1182 3.72577 32.7257C2.79193 32.7108 0.923476 33.037 0.222213 32.4612C0.0918639 32.2065 0.0556878 32.1592 0.0851322 31.8791C0.603222 31.4158 2.97962 31.6373 3.71673 31.635C3.72864 29.0269 3.72687 26.4187 3.71143 23.8105C2.57699 23.8316 1.05636 24.0314 0.0272399 23.4884L0 23.1634C0.707439 22.5729 2.79799 22.7899 3.71827 22.7972C3.67713 19.41 3.7261 15.3762 5.9727 12.6019C7.4597 10.7656 9.63616 9.95602 11.914 9.71836Z" fill="var(--fill-0, #353C3A)"/>
<path id="Vector_16" d="M28.3384 8.00254L28.4656 8.02757C28.6388 8.23027 28.6391 8.339 28.6524 8.59727C28.7973 11.4038 28.6415 14.3008 28.6404 17.1174L28.6357 34.9363C28.6353 37.0753 28.3283 42.8296 29.0084 44.5086C29.7633 46.3724 31.5267 45.784 32.0952 46.6596L32.0063 46.8928C31.4915 47.0932 22.6417 46.9851 21.2139 47.029C21.1009 47.0288 21.1232 47.0411 21.0389 47.0077C20.8223 46.9217 20.828 46.8362 20.7374 46.6364C20.9516 45.9012 22.5248 46.1978 23.1664 45.484C23.7225 44.8653 23.9392 44.0428 24.0409 43.2382C24.2518 41.5705 24.1871 39.857 24.1865 38.1788L24.1801 31.112L24.1751 20.9928C24.1778 18.7463 24.2345 16.4864 24.1264 14.2424C24.0076 11.7745 24.0914 11.3142 21.6518 10.5592C21.4054 10.4829 21.0551 10.4007 20.8724 10.208C20.7574 10.0867 20.7917 10.0455 20.7889 9.88897L20.8915 9.90198C21.0844 9.678 21.9703 9.62981 22.28 9.59045C24.3989 9.3207 26.4185 8.97906 28.3384 8.00254Z" fill="var(--fill-0, #353C3A)"/>
<path id="Vector_17" d="M64.3197 22.6267L64.6517 22.6685C64.6781 22.7099 64.7211 22.7698 64.7399 22.8188C64.9869 23.4631 64.8513 27.7775 64.602 28.3646C64.9582 28.0549 65.1115 27.6174 65.3233 27.2059C66.072 25.7514 66.9973 24.4751 68.4916 23.7117C70.0443 22.9182 72.0591 22.5049 73.743 23.0716C74.6782 23.3862 75.4336 24.0317 75.8626 24.9234C76.3092 25.8536 76.3975 26.9486 76.0379 27.9227C75.7446 28.7152 75.1557 29.4222 74.3793 29.7767C73.6438 30.1125 72.8277 30.0836 72.0833 29.7864C71.3312 29.4857 70.6938 28.9486 70.3873 28.1862C69.7962 26.7201 70.5913 26.1898 71.0489 24.9844C71.1383 24.7511 71.1217 24.6791 71.0192 24.4604C70.7049 24.309 70.3751 24.3738 70.0498 24.4518C65.9077 25.4451 64.9362 30.3404 64.8524 33.9935C64.8314 34.8934 64.8645 38.0475 64.8645 38.0475C64.8645 38.0475 64.8303 41.0792 64.8645 41.9501C64.9472 44.0661 65.0928 45.501 67.3557 46.1799C67.6865 46.2791 68.1078 46.3409 68.3603 46.5891C68.4276 46.6548 68.3945 46.7746 68.3934 46.8647C68.368 46.884 68.3427 46.9045 68.3173 46.9227C68.1773 47.0191 57.6379 47.0557 57.0534 46.9092L56.9829 46.6664C57.2266 45.7466 58.9977 46.2071 59.6803 45.3382C60.0199 44.9057 60.1512 44.342 60.2284 43.8089C60.6441 40.9479 60.4434 37.8565 60.4368 34.9601C60.4313 32.5606 60.5846 30.0047 60.2581 27.6341C59.8049 24.3353 58.604 25.884 57.2398 24.845C57.1207 24.5846 57.1395 24.5568 57.2045 24.2737C59.5281 23.8338 62.1075 23.8141 64.2436 22.6683L64.3197 22.6267Z" fill="var(--fill-0, #353C3A)"/>
</g>
<defs>
<clipPath id="clip0_10214_354">
<rect width="98.6667" height="47.5185" fill="white"/>
</clipPath>
</defs>
</svg>
